<?xml version="1.0" standalone="no"?>
<!DOCTYPE svg PUBLIC "-//W3C//DTD SVG 20010904//EN"
 "http://www.w3.org/TR/2001/REC-SVG-20010904/DTD/svg10.dtd">
<svg version="1.0" xmlns="http://www.w3.org/2000/svg"
 width="1000.000000pt" height="1000.000000pt" viewBox="0 0 1000.000000 1000.000000"
 preserveAspectRatio="xMidYMid meet">
<metadata>
Created by potrace 1.11, written by Peter Selinger 2001-2013
</metadata>
<g transform="translate(0.000000,1000.000000) scale(0.100000,-0.100000)"
fill="#000000" stroke="none">
<path d="M4675 9989 c-300 -21 -587 -66 -880 -139 -1115 -276 -2098 -926
-2790 -1845 -712 -945 -1074 -2152 -995 -3317 100 -1473 817 -2803 1985 -3683
859 -647 1930 -1005 3005 -1005 1075 0 2146 358 3005 1005 1168 880 1885 2210
1985 3683 79 1165 -283 2372 -995 3317 -880 1168 -2210 1885 -3683 1985 -171
11 -470 11 -637 -1z m590 -499 c1756 -110 3275 -1211 3918 -2840 70 -178 184
-530 171 -530 -2 0 -27 18 -56 41 -77 58 -258 145 -365 173 -267 71 -597 56
-837 -36 -324 -125 -570 -398 -684 -758 -107 -338 -103 -805 10 -1144 139
-417 397 -666 778 -749 138 -31 434 -30 568 1 127 29 246 80 346 146 90 60
220 190 262 262 28 48 34 54 28 27 -221 -998 -720 -1845 -1469 -2491 -1099
-947 -2596 -1306 -4005 -961 -683 168 -1333 503 -1865 961 -1281 1105 -1836
2838 -1434 4478 319 1298 1200 2388 2404 2975 691 336 1473 492 2230 445z
m4130 -3533 c34 -158 62 -337 80 -504 19 -177 30 -527 20 -618 l-8 -70 -16 60
c-51 180 -183 344 -366 454 -190 115 -484 159 -702 106 -151 -37 -344 -150
-437 -257 -25 -29 -46 -45 -50 -39 -11 18 13 217 35 289 60 192 193 355 352
431 227 108 524 71 745 -93 34 -25 64 -46 66 -46 2 0 48 75 102 168 120 206
144 245 149 240 3 -2 16 -57 30 -121z m-790 -1063 c91 -22 164 -62 226 -123
71 -72 94 -132 94 -251 0 -74 -4 -93 -29 -145 -35 -70 -111 -149 -182 -187
-139 -75 -364 -77 -514 -6 -66 32 -159 131 -203 215 -36 69 -77 201 -77 248 0
57 172 194 294 235 122 40 261 45 391 14z"/>
<path d="M3276 6364 c-292 -45 -553 -167 -735 -343 -39 -37 -71 -72 -71 -77 0
-5 41 -56 91 -114 50 -58 121 -140 157 -182 36 -43 70 -78 75 -78 5 0 28 19
51 41 97 98 265 191 413 230 110 29 299 37 380 16 132 -34 233 -108 274 -200
19 -42 23 -69 23 -137 -2 -266 -203 -486 -1019 -1111 -82 -64 -203 -155 -267
-202 l-118 -87 0 -225 0 -225 1005 0 1005 0 0 250 0 250 -540 2 -541 3 108 80
c59 44 173 134 253 201 462 384 651 651 692 980 21 167 -20 372 -103 510 -69
114 -212 240 -357 313 -208 105 -512 146 -776 105z"/>
<path d="M5030 5571 l0 -768 196 -51 196 -51 66 50 c143 108 294 159 477 161
61 1 137 -4 170 -11 132 -29 242 -108 292 -209 26 -52 28 -67 28 -167 0 -101
-2 -114 -28 -164 -59 -111 -187 -197 -329 -221 -99 -17 -290 -7 -393 20 -144
39 -282 113 -387 209 l-57 52 -155 -195 c-86 -107 -156 -199 -156 -204 0 -18
134 -135 217 -189 99 -65 176 -100 304 -141 165 -53 260 -66 494 -66 181 0
224 3 314 23 415 89 685 347 750 715 14 77 14 285 0 362 -15 85 -54 200 -92
267 -83 148 -258 298 -416 358 -127 47 -170 54 -341 54 -143 0 -176 -3 -245
-23 -98 -29 -185 -70 -249 -119 -27 -21 -57 -44 -67 -52 -18 -13 -19 -3 -19
308 l0 321 630 0 630 0 0 250 0 250 -915 0 -915 0 0 -769z"/>
</g>
</svg>
