<?xml version="1.0" standalone="no"?>
<!DOCTYPE svg PUBLIC "-//W3C//DTD SVG 20010904//EN"
 "http://www.w3.org/TR/2001/REC-SVG-20010904/DTD/svg10.dtd">
<svg version="1.0" xmlns="http://www.w3.org/2000/svg"
 width="1000.000000pt" height="1000.000000pt" viewBox="0 0 1000.000000 1000.000000"
 preserveAspectRatio="xMidYMid meet">
<metadata>
Created by potrace 1.11, written by Peter Selinger 2001-2013
</metadata>
<g transform="translate(0.000000,1000.000000) scale(0.100000,-0.100000)"
fill="#000000" stroke="none">
<path d="M4749 9496 c-2 -2 -50 -7 -106 -10 -55 -4 -112 -9 -125 -11 -12 -2
-48 -6 -78 -10 -30 -4 -64 -9 -75 -11 -11 -2 -38 -6 -60 -8 -22 -3 -51 -8 -65
-10 -14 -3 -36 -7 -50 -10 -97 -17 -247 -50 -310 -68 -41 -11 -79 -21 -85 -22
-5 -1 -16 -5 -22 -9 -7 -5 -13 -6 -13 -2 0 3 -15 -1 -32 -8 -18 -8 -36 -15
-41 -15 -32 -6 -77 -20 -172 -54 -265 -95 -336 -127 -690 -306 -16 -9 -32 -18
-35 -21 -3 -3 -16 -12 -29 -19 -13 -8 -38 -22 -55 -31 -75 -43 -215 -133 -226
-147 -7 -7 -19 -14 -26 -14 -8 0 -14 -4 -14 -10 0 -5 -5 -10 -11 -10 -6 0 -40
-22 -75 -50 -35 -27 -68 -50 -73 -50 -5 0 -11 -3 -13 -8 -1 -4 -45 -41 -95
-81 -51 -41 -93 -79 -93 -83 0 -4 -4 -8 -10 -8 -22 0 -339 -311 -458 -450 -40
-47 -83 -96 -95 -110 -77 -86 -346 -470 -364 -517 -4 -10 -10 -20 -14 -23 -4
-3 -21 -32 -40 -65 -18 -33 -43 -80 -57 -105 -82 -150 -177 -356 -233 -505
-17 -44 -39 -101 -50 -127 -10 -25 -20 -55 -22 -65 -2 -10 -8 -27 -14 -38 -6
-11 -11 -24 -11 -30 0 -5 -5 -26 -11 -45 -23 -73 -63 -216 -67 -240 -3 -14 -9
-41 -14 -60 -5 -19 -11 -46 -14 -60 -12 -56 -27 -127 -31 -150 -2 -14 -7 -36
-9 -50 -3 -14 -8 -47 -11 -74 -3 -27 -8 -52 -10 -56 -2 -3 -6 -38 -10 -78 -3
-39 -8 -81 -10 -92 -25 -132 -26 -863 0 -943 2 -7 6 -39 10 -72 8 -85 14 -136
20 -165 3 -14 8 -37 10 -52 3 -16 7 -40 10 -55 3 -16 10 -50 14 -78 25 -140
127 -506 171 -610 5 -11 20 -51 33 -90 37 -104 81 -209 90 -216 5 -3 9 -10 9
-15 4 -45 216 -448 308 -584 5 -8 24 -37 42 -65 18 -27 36 -51 40 -53 5 -2 8
-8 8 -13 0 -9 38 -67 51 -79 3 -3 19 -25 36 -50 17 -25 41 -55 52 -67 12 -12
21 -25 21 -28 0 -4 6 -12 12 -19 7 -7 27 -30 43 -50 71 -88 135 -162 218 -249
37 -39 67 -75 67 -79 0 -4 4 -8 8 -8 5 0 44 -35 89 -77 94 -92 189 -176 258
-230 56 -44 121 -99 123 -105 2 -5 10 -8 18 -8 8 0 14 -3 14 -7 0 -5 12 -16
28 -25 15 -9 50 -33 77 -53 88 -64 322 -215 332 -215 3 0 31 -15 62 -34 133
-80 373 -193 586 -275 11 -5 37 -16 58 -25 21 -9 42 -16 47 -16 5 0 21 -5 37
-12 15 -6 33 -12 38 -14 34 -9 175 -54 198 -63 15 -6 27 -8 27 -6 0 2 11 0 25
-5 14 -5 36 -12 48 -14 12 -3 58 -14 102 -26 44 -11 105 -24 135 -30 30 -5 66
-12 80 -15 14 -3 41 -7 60 -10 41 -6 87 -13 115 -20 11 -2 54 -7 95 -11 41 -3
78 -8 81 -10 43 -24 809 -24 949 1 22 3 60 9 150 20 98 12 136 18 305 54 55
12 109 24 120 27 11 3 29 7 40 9 37 6 325 92 375 112 8 3 20 7 27 9 10 2 120
43 168 63 206 86 407 180 413 194 2 4 12 7 23 7 10 0 19 3 19 8 0 4 17 15 38
25 20 10 55 29 77 42 22 13 47 27 55 31 8 4 38 23 67 41 29 18 56 33 62 33 5
0 11 4 13 9 2 5 35 29 73 55 133 87 275 192 327 241 15 14 29 25 32 25 3 0 14
8 24 17 10 10 50 45 88 78 87 75 331 319 404 404 30 35 63 73 74 85 10 12 30
37 45 56 14 19 31 40 36 46 40 47 125 162 125 171 0 5 9 15 20 23 11 8 20 18
20 23 0 11 62 101 73 105 4 2 7 8 7 13 0 5 16 33 35 62 19 28 35 57 35 64 0 7
3 13 8 13 4 0 18 21 32 48 13 26 27 49 30 52 7 7 21 32 69 130 23 47 46 92 51
100 31 52 65 133 205 485 5 11 9 22 10 25 0 3 13 43 28 90 41 129 79 260 82
284 1 12 10 49 19 83 9 34 27 120 41 190 13 70 33 154 44 185 38 111 41 168
28 678 -3 157 -8 303 -11 326 -2 23 -7 70 -11 105 -3 35 -8 75 -10 89 -2 14
-9 61 -15 105 -15 98 -17 113 -23 145 -3 14 -8 43 -12 65 -4 22 -10 54 -15 70
-5 17 -18 74 -31 127 -19 83 -20 100 -8 114 11 14 10 19 -14 36 -15 11 -27 26
-27 33 0 40 -126 389 -196 543 -13 29 -24 54 -24 57 0 6 -74 159 -80 165 -3 3
-25 46 -49 95 -24 50 -49 97 -56 105 -7 8 -25 38 -39 65 -30 56 -128 210 -151
238 -8 9 -13 17 -10 17 3 0 -2 8 -9 18 -8 9 -40 51 -70 92 -138 187 -240 309
-363 438 -35 35 -63 69 -63 75 0 6 -2 8 -5 6 -2 -3 -49 38 -104 90 -55 53
-117 110 -138 128 -21 18 -51 44 -68 58 -16 14 -43 36 -58 48 -16 12 -34 27
-40 32 -10 9 -69 54 -102 77 -5 4 -26 21 -46 38 -20 16 -41 30 -45 30 -5 0
-22 11 -37 25 -15 14 -27 23 -27 20 0 -4 -17 6 -37 22 -47 36 -190 126 -273
171 -19 10 -53 29 -74 41 -51 29 -238 123 -296 149 -52 22 -166 71 -195 82
-11 4 -36 15 -55 23 -29 12 -69 27 -90 32 -3 1 -12 5 -20 8 -96 40 -460 141
-590 163 -14 3 -32 7 -41 10 -9 2 -34 7 -55 10 -22 2 -46 6 -54 9 -8 2 -35 7
-60 10 -51 7 -94 13 -130 20 -14 2 -56 7 -95 10 -38 4 -88 9 -110 12 -48 5
-611 14 -616 9z"/>
</g>
</svg>
