<?xml version="1.0" standalone="no"?>
<!DOCTYPE svg PUBLIC "-//W3C//DTD SVG 20010904//EN"
 "http://www.w3.org/TR/2001/REC-SVG-20010904/DTD/svg10.dtd">
<svg version="1.0" xmlns="http://www.w3.org/2000/svg"
 width="1000.000000pt" height="1000.000000pt" viewBox="0 0 1000.000000 1000.000000"
 preserveAspectRatio="xMidYMid meet">
<metadata>
Created by potrace 1.11, written by Peter Selinger 2001-2013
</metadata>
<g transform="translate(0.000000,1000.000000) scale(0.100000,-0.100000)"
fill="#000000" stroke="none">
<path d="M3305 6469 c-147 -19 -346 -79 -477 -145 -93 -46 -211 -130 -285
-203 -40 -39 -73 -74 -73 -78 0 -6 283 -340 315 -371 2 -2 30 18 62 45 132
113 265 186 408 224 113 29 300 37 382 16 132 -34 233 -108 274 -200 19 -42
23 -69 23 -137 -2 -282 -229 -517 -1226 -1269 l-178 -134 0 -223 0 -224 1005
0 1005 0 0 250 0 250 -540 2 -540 3 133 100 c298 226 570 478 701 652 82 108
170 281 196 388 114 452 -118 848 -588 1005 -161 53 -402 73 -597 49z"/>
<path d="M8356 6464 c-139 -21 -232 -50 -352 -109 -462 -225 -713 -753 -665
-1405 23 -319 97 -564 234 -773 210 -322 523 -470 962 -453 294 10 506 89 688
257 162 148 251 320 278 539 23 188 -5 367 -81 525 -106 220 -320 379 -595
441 -110 25 -323 25 -420 0 -157 -40 -346 -152 -439 -258 -25 -29 -46 -45 -50
-39 -11 18 13 217 35 289 75 241 247 417 465 472 207 53 450 2 632 -134 34
-25 64 -46 66 -46 4 0 71 112 192 323 l63 109 -32 27 c-91 78 -258 164 -387
201 -177 49 -410 63 -594 34z m249 -1470 c91 -22 164 -62 226 -123 71 -72 94
-132 94 -251 0 -73 -4 -93 -28 -142 -84 -171 -254 -258 -481 -245 -204 11
-327 89 -420 266 -35 68 -76 200 -76 248 0 56 173 192 294 233 122 40 261 45
391 14z"/>
<path d="M5030 5671 l0 -768 196 -51 196 -51 66 50 c145 110 294 160 482 161
64 1 139 -4 170 -11 131 -32 238 -110 287 -209 26 -52 28 -67 28 -167 0 -101
-2 -114 -28 -164 -59 -111 -187 -197 -329 -221 -99 -17 -280 -8 -388 20 -150
38 -283 109 -393 210 l-56 51 -156 -195 c-85 -108 -155 -200 -155 -205 0 -17
134 -134 209 -183 208 -136 441 -203 741 -215 261 -10 466 28 655 122 263 130
425 342 474 619 16 85 13 292 -3 378 -36 180 -94 288 -225 418 -99 98 -167
144 -269 186 -125 50 -177 59 -352 59 -142 0 -176 -4 -244 -23 -96 -28 -213
-87 -280 -142 -26 -22 -50 -40 -52 -40 -2 0 -4 144 -4 320 l0 320 630 0 630 0
0 250 0 250 -915 0 -915 0 0 -769z"/>
</g>
</svg>
